<svg width="16" height="16" viewBox="0 0 16 16" fill="none" xmlns="http://www.w3.org/2000/svg">
<g clip-path="url(#clip0_18_647)">
<path d="M8.0001 14.6666C11.6821 14.6666 14.6668 11.682 14.6668 7.99998C14.6668 4.31798 11.6821 1.33331 8.0001 1.33331C4.3181 1.33331 1.33344 4.31798 1.33344 7.99998C1.33344 11.682 4.3181 14.6666 8.0001 14.6666Z" stroke="black" stroke-opacity="0.6" stroke-linecap="round" stroke-linejoin="round"/>
<path d="M8.00006 9.99976C8.53049 9.99976 9.0392 9.78904 9.41427 9.41397C9.78935 9.0389 10.0001 8.53019 10.0001 7.99976C10.0001 7.46932 9.78935 6.96061 9.41427 6.58554C9.0392 6.21047 8.53049 5.99976 8.00006 5.99976C7.46963 5.99976 6.96092 6.21047 6.58585 6.58554C6.21077 6.96061 6.00006 7.46932 6.00006 7.99976C6.00006 8.53019 6.21077 9.0389 6.58585 9.41397C6.96092 9.78904 7.46963 9.99976 8.00006 9.99976V9.99976Z" stroke="black" stroke-opacity="0.6" stroke-linecap="round" stroke-linejoin="round"/>
<path d="M1.33331 7.99982H5.99998M9.99998 7.99982H14.6666" stroke="black" stroke-opacity="0.6"/>
</g>
<defs>
<clipPath id="clip0_18_647">
<rect width="16" height="16" fill="white"/>
</clipPath>
</defs>
</svg>
