<svg width="36" height="36" viewBox="0 0 36 36" fill="none" xmlns="http://www.w3.org/2000/svg">
<path fill-rule="evenodd" clip-rule="evenodd" d="M21.0268 9.01762C21.0399 8.99893 21.0656 8.99439 21.0843 9.00748L22.3624 9.9024C22.3811 9.91549 22.3857 9.94125 22.3726 9.95994L20.5937 12.5004C21.4585 12.7767 22.0477 13.0747 22.0477 13.0747C22.0477 13.0747 20.6076 15.5519 18.1649 15.5519C15.7223 15.5519 13.9866 13.2431 13.9866 13.2431C13.9866 13.2431 14.6021 12.8503 15.5144 12.5135L13.5632 10.1882C13.5485 10.1707 13.5508 10.1447 13.5683 10.13L14.7635 9.12708C14.781 9.11241 14.8071 9.11469 14.8217 9.13217L17.2922 12.0764C17.5038 12.0525 17.7193 12.0391 17.9367 12.0391C18.2493 12.0391 18.5615 12.0629 18.8663 12.1032L21.0268 9.01762ZM21.5101 15.6692C22.1619 15.2037 23.1482 13.9886 23.1482 13.9886C23.1482 13.9886 25.6677 15.9851 25.6677 20.2185C25.6677 24.4518 21.3119 26.9997 21.3119 26.9997C21.3119 26.9997 19.2309 24.898 18.72 22.2339C18.2091 19.5697 19.4757 16.6114 19.4757 16.6114C19.4757 16.6114 20.8582 16.1347 21.5101 15.6692V15.6692ZM14.4899 15.6692C13.8381 15.2037 12.8518 13.9886 12.8518 13.9886C12.8518 13.9886 10.3323 15.9851 10.3323 20.2185C10.3323 24.4518 14.6881 26.9997 14.6881 26.9997C14.6881 26.9997 16.7691 24.898 17.28 22.2339C17.7909 19.5697 16.5243 16.6114 16.5243 16.6114C16.5243 16.6114 15.1418 16.1347 14.4899 15.6692V15.6692Z" fill="white"/>
</svg>
