<svg width="36" height="36" viewBox="0 0 36 36" fill="none" xmlns="http://www.w3.org/2000/svg">
<path fill-rule="evenodd" clip-rule="evenodd" d="M18.8732 17.9607C18.9952 17.8863 19.0987 17.7304 19.1822 17.5571C20.2806 18.0061 21.0526 19.067 21.0526 20.3041C21.0526 21.9477 19.6903 23.2801 18.0098 23.2801C17.3199 23.2801 16.6837 23.0555 16.1734 22.6772C16.0059 22.5979 15.8682 22.5217 15.7555 22.4594C15.5807 22.3628 15.466 22.2994 15.3942 22.3093C15.1844 22.3382 15.2453 22.5313 15.3007 22.7067C15.3383 22.8258 15.3733 22.9368 15.3191 22.9826C15.2623 23.0305 15.0785 22.8553 14.8638 22.6505C14.5714 22.3718 14.2217 22.0383 14.0567 22.1385C13.9264 22.2177 14.0529 22.4325 14.2079 22.6955L14.2194 22.715C14.2849 22.8262 14.3607 22.9394 14.43 23.0427C14.5707 23.2526 14.684 23.4218 14.6273 23.4504C14.5588 23.485 14.0811 23.1626 13.6786 22.715C13.5233 22.5423 13.3728 22.3551 13.233 22.1811V22.181C12.9269 21.8001 12.6718 21.4829 12.5287 21.5204C12.3565 21.5657 12.4867 21.9209 12.6782 22.2627C12.7677 22.4226 12.873 22.5853 12.9641 22.7263V22.7263C13.1059 22.9455 13.2135 23.1118 13.1745 23.1323C13.1218 23.1598 12.6584 22.7079 12.3437 22.1385C12.1568 21.8003 11.9998 21.4265 11.8727 21.1239C11.7349 20.7957 11.6322 20.5513 11.5646 20.5266C11.3298 20.4412 11.3298 20.92 11.424 21.6112C11.4362 21.7014 11.4545 21.7959 11.4771 21.8922C12.3906 24.8479 15.1968 27 18.5169 27C22.5781 27 25.8702 23.7801 25.8702 19.8082C25.8702 16.0277 22.888 12.9286 19.0989 12.6385C19.1036 12.4604 19.1966 12.1072 19.1966 12.1072C19.1966 12.1072 19.8655 10.4888 19.9009 10.1429C19.9032 10.12 19.906 10.095 19.909 10.0685C19.9506 9.69479 20.0281 9 19.4304 9C19.1112 9 18.9628 9.23747 18.793 9.50906V9.50906C18.7278 9.61333 18.6595 9.72262 18.5771 9.82543C17.9841 10.566 16.9869 11.4908 16.4215 11.9835C15.2264 13.0248 14.0539 13.8807 13.37 14.3798L13.37 14.3799C13.059 14.6069 12.8491 14.7601 12.7841 14.8234C12.2945 15.3007 10.5391 18.4671 10.5391 18.4671C10.5391 18.4671 9.97139 19.483 10.1732 19.689C10.3749 19.895 10.8615 19.8478 10.8615 19.8478C10.8615 19.8478 17.3985 18.3482 17.9838 18.2299C18.1413 18.198 18.2526 18.1796 18.338 18.1656C18.5698 18.1273 18.6114 18.1204 18.8732 17.9607ZM14.2513 16.0335C13.9004 16.367 13.3185 17.1631 13.3185 17.1631C13.3185 17.1631 14.4 17.2298 14.9957 16.6636C15.5914 16.0973 15.4549 15.1324 15.4549 15.1324C15.4549 15.1324 14.6022 15.7 14.2513 16.0335Z" fill="white"/>
</svg>
