<svg width="36" height="36" viewBox="0 0 36 36" fill="none" xmlns="http://www.w3.org/2000/svg">
<path fill-rule="evenodd" clip-rule="evenodd" d="M12.1043 10.4964C12.3222 9.63638 13.1013 9 14.0291 9C14.725 9 15.3373 9.35806 15.6918 9.9H16.2724C16.6331 9.52986 17.1369 9.3 17.6946 9.3C18.5121 9.3 19.2142 9.79412 19.5186 10.5H20.0046C20.3092 10.3099 20.6691 10.2 21.0545 10.2C21.8721 10.2 22.5742 10.6941 22.8786 11.4H24.2003C24.2116 11.4 24.2222 11.403 24.2313 11.4083C24.2916 11.4028 24.3528 11.4 24.4145 11.4C25.5111 11.4 26.4 12.2889 26.4 13.3855V19.339L26.4 19.35L26.4 19.361V19.4468C26.4 19.4831 26.399 19.5193 26.397 19.5553C26.2776 23.6854 22.5638 27 18 27C13.3608 27 9.60001 23.575 9.60001 19.35C9.60001 17.3106 10.4763 15.4576 11.9046 14.0862C11.9011 16.0744 11.9346 18.1299 12.0894 18.0946C12.504 18.0001 12.1801 11.842 12.1043 10.4964Z" fill="white"/>
</svg>
