<svg width="36" height="36" viewBox="0 0 36 36" fill="none" xmlns="http://www.w3.org/2000/svg">
<path fill-rule="evenodd" clip-rule="evenodd" d="M21.3901 22.9006C21.6125 22.0874 21.1808 20.4156 21.1808 20.4156C21.1808 20.4156 20.8677 21.7775 20.3785 22.2809C19.9611 22.7102 19.4497 23.008 18.7164 23.0863C19.316 22.7951 19.7283 22.1878 19.7283 21.4859C19.7283 20.5006 18.9158 19.7019 17.9135 19.7019C16.9112 19.7019 16.0986 20.5006 16.0986 21.4859C16.0986 21.755 16.1593 22.0102 16.2678 22.239C15.6409 21.7396 15.5423 20.9389 15.5423 20.9389C15.5423 20.9389 14.8423 23.8452 16.7712 25.2124C18.7 26.5795 22.4786 25.4044 22.4786 25.4044C22.4786 25.4044 17.0712 29.2091 13.0643 25.0682C9.6127 21.501 12.1634 16.8048 12.1634 16.8048C12.1634 16.8048 12.0533 17.2404 12.0533 17.7462C12.0533 18.2519 12.3275 18.6367 12.3275 18.6367C12.3275 18.6367 13.1454 16.9127 13.7819 16.2115C14.3844 15.548 15.1396 15.0098 15.7918 14.545C16.2939 14.1872 16.7351 13.8728 16.9985 13.5782C18.4497 11.9555 17.5599 9 17.5599 9C17.5599 9 19.1957 10.4421 19.6524 12.3046C19.8265 13.0146 19.7145 13.8223 19.6144 14.5447C19.4518 15.7174 19.3204 16.6649 20.4948 16.6035C22.3926 16.5041 20.7435 13.5782 20.7435 13.5782C20.7435 13.5782 25.0484 15.8408 24.7268 19.7981C24.4052 23.7553 20.0213 24.655 20.0213 24.655C20.0213 24.655 21.1677 23.7138 21.3901 22.9006Z" fill="white"/>
</svg>
