<svg width="36" height="36" viewBox="0 0 36 36" fill="none" xmlns="http://www.w3.org/2000/svg">
<path fill-rule="evenodd" clip-rule="evenodd" d="M21.971 26.9377C20.3473 27.0208 18.4885 27.0208 17.8568 26.9377C12.9294 26.2894 9 22.6868 9 17.8172C9 12.9476 13.0294 9 18 9C22.9706 9 27 12.9476 27 17.8172C27 20.082 26.1284 22.1473 24.6959 23.7089C24.3069 24.1329 24.8406 24.4304 25.3829 24.7326C25.9147 25.029 26.4548 25.3299 26.1409 25.7594C25.7951 26.2326 23.92 26.8379 21.971 26.9377ZM16.7344 16.715C16.7344 17.4759 16.1048 18.0927 15.3281 18.0927C14.5515 18.0927 13.9219 17.4759 13.9219 16.715C13.9219 16.2047 14.2051 15.7593 14.6258 15.5212C14.6501 16.1846 15.1956 16.715 15.8649 16.715H16.7344V16.715ZM21.0929 15.5212C21.0687 16.1846 20.5232 16.715 19.8538 16.715H18.9844V16.715C18.9844 17.4759 19.614 18.0927 20.3906 18.0927C21.1673 18.0927 21.7969 17.4759 21.7969 16.715C21.7969 16.2047 21.5137 15.7593 21.0929 15.5212Z" fill="white"/>
</svg>
