<svg width="36" height="36" viewBox="0 0 36 36" fill="none" xmlns="http://www.w3.org/2000/svg">
<path fill-rule="evenodd" clip-rule="evenodd" d="M23.839 21.1825C23.839 24.3952 21.2248 26.9996 18 26.9996C14.7752 26.9996 12.161 24.3952 12.161 21.1825C12.161 18.058 17.6842 9.47666 17.9871 9.00838C17.994 8.9977 18.006 8.9977 18.0129 9.00838C18.3158 9.47666 23.839 18.058 23.839 21.1825ZM17.0267 25.1347C14.0637 24.4863 14.5707 21.2042 14.5707 21.2042C14.5707 21.2042 15.3798 23.1855 17.3432 23.8273C19.3067 24.4691 21.6794 23.5278 21.6794 23.5278C21.6794 23.5278 19.9896 25.7829 17.0267 25.1347Z" fill="white"/>
</svg>
