<svg width="36" height="36" viewBox="0 0 36 36" fill="none" xmlns="http://www.w3.org/2000/svg">
<path fill-rule="evenodd" clip-rule="evenodd" d="M12.6118 23.273L15.4989 22.4358L17.9925 26.9953C17.9958 27.0012 18.0042 27.0012 18.0075 26.9953L20.5011 22.4358L23.3882 23.273C23.3947 23.2748 23.4007 23.2688 23.3988 23.2624L22.5615 20.4324L26.9952 18.0075C27.0012 18.0042 27.0012 17.9958 26.9953 17.9925L22.525 15.5476L23.3988 12.5942C23.4007 12.5877 23.3947 12.5817 23.3882 12.5835L20.4334 13.4403L18.0075 9.00474C18.0042 8.99883 17.9958 8.99883 17.9925 9.00474L15.5666 13.4403L12.6118 12.5835C12.6053 12.5817 12.5993 12.5877 12.6012 12.5942L13.475 15.5476L9.00474 17.9925C8.99883 17.9958 8.99883 18.0042 9.00474 18.0075L13.4385 20.4324L12.6012 23.2624C12.5993 23.2688 12.6053 23.2748 12.6118 23.273ZM14.8521 18.0311L16.8975 19.1497L18.0161 21.1951C18.0194 21.201 18.0279 21.201 18.0311 21.1951L19.1497 19.1497L21.1951 18.0311C21.201 18.0279 21.201 18.0194 21.1951 18.0161L19.1497 16.8975L18.0311 14.8522C18.0279 14.8462 18.0194 14.8462 18.0161 14.8522L16.8975 16.8975L14.8521 18.0161C14.8462 18.0194 14.8462 18.0279 14.8521 18.0311Z" fill="white"/>
</svg>
