<svg width="36" height="36" viewBox="0 0 36 36" fill="none" xmlns="http://www.w3.org/2000/svg">
<path fill-rule="evenodd" clip-rule="evenodd" d="M15.2829 25.7999C17.9197 25.7999 20.1772 24.3345 21.1091 22.257C21.1205 22.2317 17.3675 23.2323 17.4871 22.8786C17.5406 22.7206 19.8412 21.8802 21.5173 20.8999C22.4807 20.3364 22.9244 19.1437 22.9244 19.1437C22.9244 19.1437 21.3013 19.9317 20.4808 20.1316C18.8273 20.5345 17.3718 20.4911 17.3718 20.4492C17.3718 20.3584 19.7886 19.8992 23.1477 17.8522C24.7278 16.8894 25.1569 15.2309 25.1569 15.2309C25.1569 15.2309 23.4198 16.2656 22.3697 16.6072C19.8794 17.4174 17.6068 17.6615 17.6068 17.5519C17.6068 17.3172 19.6067 16.7672 21.7272 15.7398C22.8297 15.2056 23.7845 14.5076 24.8909 13.7315C26.7014 12.4616 27 10.2 27 10.2C27 10.2 25.2143 11.3517 24.3429 11.7341C20.7472 13.3124 17.5721 14.1402 15.2829 14.3195C11.8272 14.59 9.00003 17.0011 9.00003 20.1316C9.00003 23.2622 11.8129 25.7999 15.2829 25.7999Z" fill="white"/>
</svg>
