<svg width="36" height="36" viewBox="0 0 36 36" fill="none" xmlns="http://www.w3.org/2000/svg">
<path fill-rule="evenodd" clip-rule="evenodd" d="M24.0406 22.8322C25.8583 21.3788 27 19.2788 27 16.9436C27 12.5564 22.9706 9 18 9C13.0294 9 9 12.5564 9 16.9436C9 19.1945 10.0608 21.2269 11.7652 22.6723C11.6619 23.029 11.6053 23.4169 11.6053 23.8226C11.6053 25.5774 12.6656 27 13.9737 27C14.8236 27 15.569 26.3994 15.9868 25.4972C16.4047 26.3994 17.1501 27 18 27C18.7748 27 19.4626 26.5009 19.8947 25.7293C20.3269 26.5009 21.0147 27 21.7895 27C23.0975 27 24.1579 25.5774 24.1579 23.8226C24.1579 23.4768 24.1167 23.1439 24.0406 22.8322ZM23.2105 17.1011C23.2105 19.3284 20.8247 21.134 17.8816 21.134C14.9385 21.134 12.5526 19.3284 12.5526 17.1011C12.5526 14.8738 14.9385 13.0682 17.8816 13.0682C20.8247 13.0682 23.2105 14.8738 23.2105 17.1011Z" fill="white"/>
</svg>
