<svg width="36" height="36" viewBox="0 0 36 36" fill="none" xmlns="http://www.w3.org/2000/svg">
<path fill-rule="evenodd" clip-rule="evenodd" d="M25.0387 23.9488C25.0387 23.9488 22.769 25.7692 18.2524 25.0159C14.8257 24.4444 12.9981 20.667 12.9981 18.6366C12.9981 13.8226 16.561 12.7271 18.9698 12.7271C21.3786 12.7271 22.9499 15.0756 22.9499 16.8938C22.9499 18.7121 21.6639 20.3025 19.6626 20.3025C17.6613 20.3025 17.0686 18.8975 17.0686 17.6057C17.0686 16.314 18.1136 15.8589 19.0668 15.8589C20.0199 15.8589 20.3462 16.6727 20.3462 17.372C20.3462 18.0714 19.8036 18.3219 19.351 18.3219C18.8984 18.3219 18.8536 18.0935 18.6804 17.8536C18.5072 17.6136 18.9014 16.7053 18.2524 16.7053C17.6034 16.7053 17.4824 17.7495 17.4824 17.7495C17.4824 17.7495 17.719 19.7651 19.6626 19.7303C21.6062 19.6955 22.5282 18.193 22.2603 16.7053C21.9923 15.2177 20.5486 13.6369 18.0147 13.9563C15.4809 14.2757 14.4463 16.8359 14.9023 19.5719C15.3583 22.308 18.6361 23.8932 21.2132 23.3229C23.7904 22.7526 26.3572 20.8868 26.3572 16.1564C26.3572 11.426 22.2603 8.58261 17.3752 9.05122C12.49 9.51983 9.45754 13.7907 9.65165 18.9223C9.84575 24.0539 14.715 26.8487 18.8325 26.9927C22.9499 27.1368 25.4741 24.7533 25.4741 24.7533C25.4741 24.7533 26.0418 24.2471 25.8192 23.8518C25.5967 23.4565 25.0387 23.9488 25.0387 23.9488Z" fill="white"/>
</svg>
