<svg width="36" height="36" viewBox="0 0 36 36" fill="none" xmlns="http://www.w3.org/2000/svg">
<path fill-rule="evenodd" clip-rule="evenodd" d="M22.9081 17.6202C22.9071 17.6188 22.9067 17.6171 22.9069 17.6154L24.0553 10.9193C24.0558 10.9162 24.0585 10.9139 24.0616 10.9139H24.4251C24.4279 10.9139 24.4303 10.9158 24.4312 10.9184L27.0183 19.11C27.0191 19.1125 27.0183 19.1153 27.0162 19.1169L25.1086 20.6063C25.1058 20.6085 25.1016 20.6079 25.0995 20.605L22.9081 17.6202ZM8.98138 22.0592C8.98138 22.062 8.98317 22.0645 8.98581 22.0654L12.918 23.3511C12.9199 23.3517 12.922 23.3514 12.9237 23.3503L21.713 17.2823C21.7145 17.2813 21.7155 17.2797 21.7157 17.2779L22.6583 10.9536C22.6589 10.9497 22.6559 10.9462 22.652 10.9462H14.8668C14.8648 10.9462 14.863 10.9471 14.8618 10.9486L8.98286 18.0406C8.98191 18.0418 8.98138 18.0432 8.98138 18.0447V22.0592ZM14.5566 23.6786L18.8524 25.0858C18.8543 25.0865 18.8565 25.0862 18.8581 25.085L23.9726 21.4163C23.9755 21.4143 23.9762 21.4104 23.9743 21.4075L22.057 18.5544C22.055 18.5514 22.051 18.5507 22.048 18.5527L14.5566 23.6786Z" fill="white"/>
</svg>
