<svg width="16" height="16" viewBox="0 0 16 16" fill="none" xmlns="http://www.w3.org/2000/svg">
<path d="M8.00012 2.5C7.17762 2.5 6.50012 3.1775 6.50012 4C6.50012 4.176 6.53712 4.342 6.59412 4.5H4.09412L4.01562 4.9065L2.51562 12.4065L2.50012 12.453V13.5H13.5001V12.453L13.4846 12.4065L11.9846 4.9065L11.9061 4.5H9.40612C9.46618 4.34004 9.49799 4.17085 9.50012 4C9.50012 3.1775 8.82262 2.5 8.00012 2.5ZM8.00012 3.5C8.28162 3.5 8.50012 3.719 8.50012 4C8.50012 4.2815 8.28112 4.5 8.00012 4.5C7.71862 4.5 7.50012 4.281 7.50012 4C7.50012 3.7185 7.71912 3.5 8.00012 3.5ZM4.90612 5.5H11.0941L12.5001 12.5H3.50012L4.90612 5.5Z" fill="black" fill-opacity="0.6"/>
</svg>
