<?xml version="1.0" encoding="UTF-8"?>
<svg id="Layer_1" xmlns="http://www.w3.org/2000/svg" version="1.1" viewBox="0 0 66.4 66.4">
  <!-- Generator: Adobe Illustrator 29.1.0, SVG Export Plug-In . SVG Version: 2.1.0 Build 142)  -->
  <path d="M55.1,11.3c-12.1-12.1-31.7-12.1-43.8,0-12.1,12.1-12.1,31.7,0,43.8,5.8,5.8,13.7,9.1,21.9,9.1h0c17.1,0,31-13.9,31-31,0-8.2-3.3-16.1-9.1-21.9h0ZM8.5,29c2.3-13.6,15.2-22.8,28.8-20.5,10.5,1.8,18.7,10,20.5,20.5l.2,1.2h-12.2l-.2-.7c-2.1-6.9-9.3-10.8-16.2-8.7-4.2,1.3-7.5,4.5-8.7,8.7l-.2.7h-12.2l.2-1.2ZM38.1,38.2c-2.7,2.7-7.2,2.7-9.9,0-2.7-2.7-2.7-7.2,0-9.9,2.7-2.7,7.2-2.7,9.9,0,2.7,2.7,2.7,7.2,0,9.9h0ZM57.8,37.4c-2.3,13.6-15.2,22.8-28.8,20.5-10.5-1.8-18.7-10-20.5-20.5l-.2-1.2h12.2l.2.7c2.1,6.9,9.3,10.8,16.2,8.7,4.2-1.3,7.5-4.5,8.7-8.7l.2-.7h12.2l-.2,1.2Z"/>
</svg>